<svg xmlns="http://www.w3.org/2000/svg" viewBox="0 0 400 500" preserveAspectRatio="xMidYMid slice" role="img">
  <defs>
    <radialGradient id="bga8" cx="34%" cy="24%" r="95%">
      <stop offset="0%" stop-color="#202226"/>
      <stop offset="100%" stop-color="#0d0e10"/>
    </radialGradient>
    <radialGradient id="keya8" cx="32%" cy="22%" r="60%">
      <stop offset="0%" stop-color="#ffffff" stop-opacity="0.10"/>
      <stop offset="60%" stop-color="#ffffff" stop-opacity="0"/>
    </radialGradient>
    <radialGradient id="viga8" cx="50%" cy="52%" r="72%">
      <stop offset="62%" stop-color="#000000" stop-opacity="0"/>
      <stop offset="100%" stop-color="#000000" stop-opacity="0.42"/>
    </radialGradient>
    <filter id="softa8" x="-30%" y="-30%" width="160%" height="160%">
      <feGaussianBlur stdDeviation="6"/>
    </filter>
    <filter id="texa8" x="-20%" y="-20%" width="140%" height="140%">
      <feTurbulence type="fractalNoise" baseFrequency="0.9" numOctaves="2" result="n"/>
      <feColorMatrix in="n" type="saturate" values="0"/>
      <feComponentTransfer><feFuncA type="linear" slope="0.06"/></feComponentTransfer>
      <feComposite operator="over" in2="SourceGraphic"/>
    </filter>
  </defs>
  <rect width="400" height="500" fill="url(#bga8)"/>
  <g stroke="#ffffff" stroke-opacity="0.045" fill="none" stroke-width="1.4">
    <path d="M-20.0 410.0 L112.00000000000001 250.0 L184.0 310.0 L264.0 180.0 L420.0 360.0"/>
    <path d="M-20.0 460.0 L112.00000000000001 300.0 L184.0 360.0 L264.0 230.0 L420.0 410.0"/>
    <path d="M-20.0 510.0 L112.00000000000001 350.0 L184.0 410.0 L264.0 280.0 L420.0 460.0"/>
  </g>
  <rect width="400" height="500" fill="url(#keya8)"/><circle cx="300" cy="120" r="150" fill="#88b333" opacity="0.10" filter="url(#softa8)"/>
  <ellipse cx="205" cy="318.88" rx="125.08000000000001" ry="106.2" fill="#000000" opacity="0.34" filter="url(#softa8)"/>
  <circle cx="205" cy="300" r="118" fill="#efe9dd"/>
  <circle cx="205" cy="300" r="118" fill="none" stroke="#000000" stroke-opacity="0.10" stroke-width="2"/>
  <circle cx="205" cy="300" r="115.64" fill="#ffffff" opacity="0.06"/>
  <circle cx="205" cy="300" r="87.32" fill="#000000" opacity="0.05"/>
  <path d="M 122.4 235.1 A 106.2 106.2 0 0 1 228.6 203.24" fill="none" stroke="#ffffff" stroke-opacity="0.22" stroke-width="3" stroke-linecap="round"/><ellipse cx="159" cy="322" rx="54" ry="38" fill="#e9e0c8"/><ellipse cx="123.2" cy="321.0" rx="2.4" ry="1.5" fill="#ded2b0" transform="rotate(177 123.2 321.0)"/><ellipse cx="187.3" cy="324.1" rx="2.6" ry="1.6" fill="#f2ecd9" transform="rotate(84 187.3 324.1)"/><ellipse cx="186.4" cy="316.3" rx="3.4" ry="2.1" fill="#f2ecd9" transform="rotate(176 186.4 316.3)"/><ellipse cx="175.8" cy="329.0" rx="2.6" ry="1.6" fill="#f2ecd9" transform="rotate(36 175.8 329.0)"/><ellipse cx="180.2" cy="338.0" rx="3.2" ry="2.0" fill="#ded2b0" transform="rotate(87 180.2 338.0)"/><ellipse cx="133.8" cy="328.1" rx="3.2" ry="2.0" fill="#ded2b0" transform="rotate(160 133.8 328.1)"/><ellipse cx="129.0" cy="295.4" rx="2.6" ry="1.6" fill="#ded2b0" transform="rotate(59 129.0 295.4)"/><ellipse cx="166.9" cy="327.0" rx="2.7" ry="1.7" fill="#ded2b0" transform="rotate(138 166.9 327.0)"/><ellipse cx="125.8" cy="344.0" rx="2.6" ry="1.6" fill="#f2ecd9" transform="rotate(27 125.8 344.0)"/><ellipse cx="119.3" cy="326.8" rx="2.2" ry="1.4" fill="#ded2b0" transform="rotate(159 119.3 326.8)"/><ellipse cx="142.3" cy="337.9" rx="2.3" ry="1.4" fill="#ded2b0" transform="rotate(101 142.3 337.9)"/><ellipse cx="163.4" cy="329.9" rx="2.0" ry="1.2" fill="#ded2b0" transform="rotate(175 163.4 329.9)"/><ellipse cx="147.2" cy="345.8" rx="1.9" ry="1.2" fill="#ded2b0" transform="rotate(94 147.2 345.8)"/><ellipse cx="155.6" cy="286.7" rx="3.3" ry="2.1" fill="#f2ecd9" transform="rotate(128 155.6 286.7)"/><ellipse cx="127.5" cy="325.7" rx="3.1" ry="1.9" fill="#f2ecd9" transform="rotate(45 127.5 325.7)"/><ellipse cx="164.3" cy="324.2" rx="2.3" ry="1.4" fill="#ded2b0" transform="rotate(53 164.3 324.2)"/><ellipse cx="155.6" cy="354.4" rx="2.6" ry="1.6" fill="#ded2b0" transform="rotate(124 155.6 354.4)"/><ellipse cx="198.4" cy="337.2" rx="2.0" ry="1.2" fill="#f2ecd9" transform="rotate(102 198.4 337.2)"/><ellipse cx="132.9" cy="325.6" rx="2.9" ry="1.8" fill="#f2ecd9" transform="rotate(23 132.9 325.6)"/><ellipse cx="181.8" cy="294.5" rx="2.5" ry="1.5" fill="#f2ecd9" transform="rotate(32 181.8 294.5)"/><ellipse cx="180.5" cy="351.8" rx="2.3" ry="1.4" fill="#ded2b0" transform="rotate(59 180.5 351.8)"/><ellipse cx="123.6" cy="332.4" rx="3.2" ry="2.0" fill="#ded2b0" transform="rotate(135 123.6 332.4)"/><ellipse cx="168.0" cy="286.6" rx="3.4" ry="2.1" fill="#f2ecd9" transform="rotate(168 168.0 286.6)"/><ellipse cx="134.3" cy="352.1" rx="2.7" ry="1.7" fill="#f2ecd9" transform="rotate(174 134.3 352.1)"/><ellipse cx="135.3" cy="296.3" rx="2.7" ry="1.7" fill="#f2ecd9" transform="rotate(113 135.3 296.3)"/><ellipse cx="178.6" cy="304.5" rx="3.5" ry="2.2" fill="#ded2b0" transform="rotate(120 178.6 304.5)"/><ellipse cx="142.3" cy="284.5" rx="3.0" ry="1.9" fill="#ded2b0" transform="rotate(157 142.3 284.5)"/><ellipse cx="149.7" cy="307.6" rx="2.4" ry="1.5" fill="#ded2b0" transform="rotate(177 149.7 307.6)"/><ellipse cx="117.5" cy="302.2" rx="3.5" ry="2.2" fill="#ded2b0" transform="rotate(106 117.5 302.2)"/><ellipse cx="160.9" cy="304.8" rx="2.7" ry="1.7" fill="#f2ecd9" transform="rotate(68 160.9 304.8)"/><ellipse cx="157.1" cy="293.7" rx="2.0" ry="1.2" fill="#ded2b0" transform="rotate(96 157.1 293.7)"/><ellipse cx="133.6" cy="319.1" rx="2.5" ry="1.6" fill="#f2ecd9" transform="rotate(177 133.6 319.1)"/><ellipse cx="134.4" cy="325.6" rx="2.7" ry="1.7" fill="#f2ecd9" transform="rotate(38 134.4 325.6)"/><ellipse cx="136.7" cy="298.5" rx="3.3" ry="2.1" fill="#f2ecd9" transform="rotate(143 136.7 298.5)"/><ellipse cx="151.0" cy="318.6" rx="2.1" ry="1.3" fill="#ded2b0" transform="rotate(73 151.0 318.6)"/><ellipse cx="172.8" cy="340.6" rx="2.2" ry="1.4" fill="#ded2b0" transform="rotate(122 172.8 340.6)"/><ellipse cx="168.2" cy="286.2" rx="3.3" ry="2.1" fill="#f2ecd9" transform="rotate(79 168.2 286.2)"/><ellipse cx="179.8" cy="351.3" rx="2.6" ry="1.6" fill="#ded2b0" transform="rotate(156 179.8 351.3)"/><ellipse cx="122.8" cy="307.1" rx="3.5" ry="2.2" fill="#ded2b0" transform="rotate(14 122.8 307.1)"/><ellipse cx="135.9" cy="307.1" rx="2.1" ry="1.3" fill="#f2ecd9" transform="rotate(95 135.9 307.1)"/><ellipse cx="193.8" cy="310.4" rx="2.2" ry="1.4" fill="#ded2b0" transform="rotate(153 193.8 310.4)"/><ellipse cx="194.3" cy="316.4" rx="2.0" ry="1.2" fill="#ded2b0" transform="rotate(20 194.3 316.4)"/><ellipse cx="133.0" cy="328.2" rx="2.6" ry="1.6" fill="#f2ecd9" transform="rotate(22 133.0 328.2)"/><ellipse cx="156.0" cy="330.6" rx="2.1" ry="1.3" fill="#f2ecd9" transform="rotate(162 156.0 330.6)"/><ellipse cx="201.1" cy="335.5" rx="1.9" ry="1.2" fill="#ded2b0" transform="rotate(51 201.1 335.5)"/><ellipse cx="177.6" cy="308.6" rx="2.6" ry="1.6" fill="#ded2b0" transform="rotate(26 177.6 308.6)"/><ellipse cx="193.4" cy="311.3" rx="1.9" ry="1.2" fill="#f2ecd9" transform="rotate(6 193.4 311.3)"/><ellipse cx="137.7" cy="312.6" rx="3.2" ry="2.0" fill="#f2ecd9" transform="rotate(35 137.7 312.6)"/><ellipse cx="146.3" cy="291.4" rx="2.4" ry="1.5" fill="#f2ecd9" transform="rotate(34 146.3 291.4)"/><ellipse cx="180.4" cy="333.2" rx="3.2" ry="2.0" fill="#f2ecd9" transform="rotate(53 180.4 333.2)"/><ellipse cx="164.0" cy="320.0" rx="2.9" ry="1.8" fill="#f2ecd9" transform="rotate(163 164.0 320.0)"/><ellipse cx="185.8" cy="352.4" rx="1.8" ry="1.1" fill="#f2ecd9" transform="rotate(6 185.8 352.4)"/><ellipse cx="118.2" cy="303.7" rx="2.4" ry="1.5" fill="#f2ecd9" transform="rotate(118 118.2 303.7)"/><ellipse cx="155.9" cy="282.1" rx="2.8" ry="1.8" fill="#ded2b0" transform="rotate(57 155.9 282.1)"/><ellipse cx="144.7" cy="284.7" rx="3.3" ry="2.0" fill="#f2ecd9" transform="rotate(108 144.7 284.7)"/><ellipse cx="136.6" cy="322.3" rx="3.4" ry="2.1" fill="#ded2b0" transform="rotate(38 136.6 322.3)"/><ellipse cx="173.5" cy="311.0" rx="2.3" ry="1.4" fill="#ded2b0" transform="rotate(64 173.5 311.0)"/><ellipse cx="131.9" cy="304.1" rx="1.9" ry="1.2" fill="#ded2b0" transform="rotate(99 131.9 304.1)"/><ellipse cx="153.0" cy="307.1" rx="3.0" ry="1.8" fill="#ded2b0" transform="rotate(47 153.0 307.1)"/><ellipse cx="129.8" cy="292.7" rx="3.3" ry="2.0" fill="#ded2b0" transform="rotate(6 129.8 292.7)"/><ellipse cx="138.0" cy="348.1" rx="2.2" ry="1.4" fill="#ded2b0" transform="rotate(92 138.0 348.1)"/><ellipse cx="161.5" cy="341.5" rx="2.2" ry="1.4" fill="#f2ecd9" transform="rotate(146 161.5 341.5)"/><ellipse cx="201.6" cy="302.0" rx="3.1" ry="1.9" fill="#ded2b0" transform="rotate(28 201.6 302.0)"/><ellipse cx="148.6" cy="327.6" rx="3.2" ry="2.0" fill="#ded2b0" transform="rotate(87 148.6 327.6)"/><ellipse cx="169.7" cy="326.4" rx="2.6" ry="1.6" fill="#ded2b0" transform="rotate(157 169.7 326.4)"/><ellipse cx="132.0" cy="331.2" rx="3.2" ry="2.0" fill="#f2ecd9" transform="rotate(56 132.0 331.2)"/><ellipse cx="201.3" cy="336.7" rx="2.5" ry="1.6" fill="#f2ecd9" transform="rotate(115 201.3 336.7)"/><ellipse cx="134.7" cy="306.1" rx="2.3" ry="1.4" fill="#ded2b0" transform="rotate(107 134.7 306.1)"/><ellipse cx="189.8" cy="301.4" rx="3.2" ry="2.0" fill="#f2ecd9" transform="rotate(31 189.8 301.4)"/><ellipse cx="177.8" cy="349.2" rx="2.5" ry="1.6" fill="#ded2b0" transform="rotate(45 177.8 349.2)"/><g transform="rotate(-20 207 266)"><rect x="188" y="253" width="38" height="26" rx="9" fill="#c99a55"/><rect x="188" y="253" width="38" height="26" rx="9" fill="none" stroke="#6f4a24" stroke-opacity="0.5" stroke-width="2"/></g><g transform="rotate(-20 227 270)"><rect x="208" y="257" width="38" height="26" rx="9" fill="#c99a55"/><rect x="208" y="257" width="38" height="26" rx="9" fill="none" stroke="#6f4a24" stroke-opacity="0.5" stroke-width="2"/></g><g transform="rotate(-20 247 274)"><rect x="228" y="261" width="38" height="26" rx="9" fill="#c99a55"/><rect x="228" y="261" width="38" height="26" rx="9" fill="none" stroke="#6f4a24" stroke-opacity="0.5" stroke-width="2"/></g><g transform="rotate(-20 267 278)"><rect x="248" y="265" width="38" height="26" rx="9" fill="#c99a55"/><rect x="248" y="265" width="38" height="26" rx="9" fill="none" stroke="#6f4a24" stroke-opacity="0.5" stroke-width="2"/></g><g transform="rotate(-20 287 282)"><rect x="268" y="269" width="38" height="26" rx="9" fill="#c99a55"/><rect x="268" y="269" width="38" height="26" rx="9" fill="none" stroke="#6f4a24" stroke-opacity="0.5" stroke-width="2"/></g><g transform="rotate(0 213 354)"><ellipse cx="213" cy="354" rx="17" ry="15" fill="#4f8f3c"/><ellipse cx="208.24" cy="348.9" rx="6.800000000000001" ry="4.5" fill="#ffffff" opacity="0.12"/></g><ellipse cx="208" cy="348" rx="7" ry="6" fill="#6bb14d"/><g transform="rotate(0 243 348)"><ellipse cx="243" cy="348" rx="17" ry="15" fill="#4f8f3c"/><ellipse cx="238.24" cy="342.9" rx="6.800000000000001" ry="4.5" fill="#ffffff" opacity="0.12"/></g><ellipse cx="238" cy="342" rx="7" ry="6" fill="#6bb14d"/><g transform="rotate(0 191 358)"><ellipse cx="191" cy="358" rx="17" ry="15" fill="#4f8f3c"/><ellipse cx="186.24" cy="352.9" rx="6.800000000000001" ry="4.5" fill="#ffffff" opacity="0.12"/></g><ellipse cx="186" cy="352" rx="7" ry="6" fill="#6bb14d"/><circle cx="275" cy="330" r="12" fill="#c0402f"/><ellipse cx="271" cy="326" rx="4" ry="3" fill="#e46a54" opacity="0.7"/><path d="M 130 293 L 155 290 L 180 295 L 205 302 L 230 297 L 255 299 L 280 293" fill="none" stroke="#5f9438" stroke-width="2.6" stroke-linecap="round" opacity="0.9"/><g transform="translate(287 364) scale(1.15)" opacity="0.95"><path d="M0 0 C 6 -10 4 -20 0 -26" stroke="#88b333" stroke-width="2.4" fill="none" stroke-linecap="round"/><ellipse cx="-4" cy="-8" rx="4" ry="2.4" fill="#88b333" transform="rotate(-30 -4 -8)"/><ellipse cx="4" cy="-14" rx="4" ry="2.4" fill="#6f9e2e" transform="rotate(30 4 -14)"/><ellipse cx="-3" cy="-20" rx="3.4" ry="2" fill="#88b333" transform="rotate(-24 -3 -20)"/></g>
  <rect width="400" height="500" fill="url(#viga8)"/></svg>